<svg width="41" height="24" viewBox="0 0 41 24" fill="none" xmlns="http://www.w3.org/2000/svg">
<g clip-path="url(#clip0_7_33)">
<g clip-path="url(#clip1_7_33)">
<path d="M40.6949 6.95717C40.5671 6.81343 37.529 3.43992 34.1378 3.32182C32.3466 3.26046 31.135 3.62148 30.4012 3.96526C30.2011 3.4479 29.4358 1.96267 26.9281 0.689245C26.027 0.23199 24.9217 0 23.6411 0C21.4444 0 19.5137 0.672854 19.4321 0.701012C19.3565 0.727909 19.3039 0.798095 19.3002 0.878366C19.296 0.958638 19.3413 1.03345 19.4136 1.06749C19.5334 1.1238 22.358 2.4443 23.6239 2.4443C23.6991 2.4443 23.7689 2.43967 23.8324 2.43085C24.2232 2.37453 24.5931 2.29636 24.9108 2.21693L24.4779 2.55357C24.4237 2.59559 24.3955 2.66284 24.4022 2.7305C24.4094 2.79859 24.451 2.85826 24.5128 2.88852L25.4878 3.36469C25.181 3.33695 24.8658 3.32056 24.5439 3.3151L24.451 3.31426C20.6408 3.31426 17.0626 6.90589 16.9122 7.05887C16.8554 7.11603 16.839 7.20176 16.8706 7.27615C16.9025 7.3497 16.9677 7.40265 17.0559 7.39593C17.2228 7.39341 21.1481 7.32743 22.2345 6.58943C22.6485 6.30827 23.0229 6.01072 23.3272 5.75141L22.9952 6.42679C22.9649 6.48814 22.9687 6.56043 23.0048 6.61885C23.0414 6.67727 23.1049 6.71257 23.1734 6.71257H25.1949C25.2638 6.71257 25.3277 6.67685 25.3634 6.61801L25.6164 6.2074L25.5916 6.43351C25.5811 6.53143 25.6441 6.62263 25.7396 6.64701C25.7673 6.65415 26.4217 6.8189 27.3139 6.8189C27.3202 6.8189 27.3265 6.8189 27.3332 6.81848C25.9619 7.58169 24.7578 8.6828 23.7038 9.95412C23.7021 9.95496 23.6966 9.95748 23.6958 9.9579L23.6975 9.96126C22.1193 11.8668 20.8804 14.1594 19.947 16.3082C19.9419 16.312 19.9356 16.3166 19.9348 16.317L19.9402 16.3242C18.3877 19.9015 17.6733 23.0666 17.6136 23.336C17.5947 23.4221 17.6359 23.5116 17.7141 23.5537C18.2688 23.8491 18.8845 24 19.5443 24C20.6589 24 21.5062 23.5734 21.5423 23.5554C21.607 23.5222 21.6486 23.4562 21.6503 23.383C21.8327 14.5435 28.0905 7.55479 28.8638 6.72518C29.4901 8.32305 30.8513 9.35229 30.9118 9.39726C30.9908 9.4561 31.1014 9.44811 31.1711 9.37793L31.3313 9.21696L31.1711 9.6717C31.1476 9.73642 31.1606 9.80871 31.2035 9.8625L32.4731 11.4331C32.5164 11.4864 32.5828 11.5133 32.6518 11.5053C32.7194 11.4965 32.7787 11.4541 32.8073 11.3914L33.125 10.7085C33.114 11.1082 33.1174 11.5865 33.1594 12.0857C33.2679 13.3936 35.684 16.4893 35.7866 16.62C35.8361 16.6827 35.9181 16.7104 35.9967 16.6885C36.074 16.6663 36.1299 16.5999 36.14 16.5204C36.1648 16.304 36.7175 11.1838 34.2555 8.23227C33.6104 7.45939 32.9325 6.82016 32.2323 6.32382C32.6551 6.30112 32.93 6.24607 32.9447 6.24313C33.0409 6.22337 33.109 6.13554 33.1031 6.03761L33.0972 5.94347L33.2502 6.22253C33.283 6.28305 33.3452 6.32214 33.4141 6.3255L35.1889 6.41544C35.1927 6.41544 35.1961 6.41544 35.1994 6.41544C35.2011 6.41586 35.202 6.41586 35.2028 6.41544C35.3129 6.41544 35.4016 6.32676 35.4016 6.21707C35.4016 6.17546 35.389 6.13722 35.3671 6.10528L35.1654 5.63415C35.4054 5.85732 35.6924 6.10528 36.0068 6.34357C36.9343 7.04416 40.3877 7.27741 40.5335 7.28666C40.6163 7.28834 40.6894 7.24799 40.7247 7.17571C40.76 7.10384 40.7483 7.01769 40.6949 6.95717ZM22.0781 13.033C22.6401 12.0765 23.2654 11.1511 23.9551 10.3025C24.0782 10.2546 24.3661 10.1685 24.6338 10.2845C24.8763 10.3895 25.057 10.6455 25.1768 11.0346C24.6981 11.8197 24.2148 12.6888 23.7584 13.629C23.2864 13.0998 22.6094 12.9902 22.0781 13.033ZM21.8109 13.4991C22.1425 13.4251 23.0528 13.3083 23.5571 14.0551C23.2158 14.7877 22.8939 15.561 22.6039 16.37C21.8062 15.7812 21.0481 15.8476 20.545 16.0148C20.922 15.181 21.3427 14.3329 21.8109 13.4991ZM19.0144 19.9251C19.367 19.7628 20.6539 19.2556 21.6306 19.9045C21.5301 20.426 21.4477 20.9564 21.3855 21.4956C20.1886 21.072 19.0888 21.2909 18.5269 21.4653C18.6618 21.0098 18.8244 20.4903 19.0144 19.9251ZM19.1951 19.398C19.4989 18.5293 19.8658 17.5711 20.2941 16.5814C20.587 16.4028 21.4809 15.9888 22.4564 16.7881C22.1664 17.6438 21.9155 18.5373 21.7184 19.4623C20.8178 18.9559 19.7835 19.1879 19.1951 19.398ZM19.5456 23.602C19.0051 23.602 18.4983 23.4902 18.0372 23.2713C18.0902 23.0498 18.2054 22.5883 18.3831 21.9608C18.6878 21.8398 19.9688 21.4027 21.3402 21.9289C21.2994 22.3643 21.27 22.8039 21.2578 23.2494C21.009 23.3553 20.3462 23.602 19.5456 23.602ZM25.4554 10.5858C25.297 10.2517 25.0789 10.0193 24.8007 9.89907C24.6536 9.8356 24.5073 9.81165 24.3703 9.80871C25.5013 8.52016 26.7957 7.45015 28.2658 6.79704C27.7043 7.43502 26.6133 8.75551 25.4554 10.5858ZM36.2459 6.02711C35.3827 5.37485 34.7233 4.62298 34.7165 4.61584C34.6527 4.54229 34.5442 4.5259 34.4614 4.57801C34.3795 4.63013 34.3467 4.73477 34.3849 4.82429L34.8914 6.00315L33.5457 5.93507L33.0237 4.98189C32.9791 4.90078 32.8846 4.86086 32.7951 4.88649C32.706 4.91213 32.6463 4.99618 32.6518 5.0878L32.6963 5.88127C32.4778 5.91153 32.0676 5.95314 31.5759 5.9296C31.4834 5.9233 31.4027 5.98382 31.3758 6.07124C31.3498 6.15823 31.3867 6.25237 31.4653 6.2986C32.326 6.80629 33.1624 7.54176 33.95 8.48611C35.8626 10.7787 35.8563 14.5893 35.7832 15.9627C34.9838 14.891 33.6259 12.912 33.5545 12.0521C33.4519 10.8241 33.5898 9.69271 33.5906 9.68136C33.6024 9.5847 33.5423 9.49308 33.4486 9.46619C33.4305 9.46072 33.4116 9.4582 33.3944 9.4582C33.3183 9.4582 33.2473 9.50191 33.2137 9.57293L32.5811 10.9346L31.5809 9.69733L31.997 8.51847C32.0281 8.43064 31.9944 8.33356 31.9163 8.28396C31.8377 8.23521 31.7351 8.24656 31.6704 8.3117L31.0144 8.969C30.6412 8.65422 29.5821 7.67331 29.1446 6.33559C29.1122 6.2343 29.0051 6.1763 28.9008 6.20698C28.7802 6.24187 28.6474 6.27339 28.4852 6.30617C28.4587 6.31205 28.4339 6.32298 28.4125 6.33727C28.3877 6.3318 28.3633 6.33138 28.3381 6.33601C28.0132 6.39148 27.6682 6.41964 27.3126 6.41964C26.7284 6.41964 26.246 6.34315 26.0039 6.29608L26.1031 5.37443C26.1132 5.28197 26.0581 5.19497 25.9703 5.16513C25.8824 5.13571 25.7862 5.17017 25.737 5.24919L25.0822 6.31331H23.4915L24.1534 4.96508C24.1967 4.87767 24.1694 4.77176 24.0896 4.71586C24.0101 4.65955 23.9009 4.67047 23.8328 4.74024C23.8248 4.74864 23.0313 5.56691 22.0122 6.2591C21.2981 6.74367 18.9047 6.93153 17.5691 6.9828C18.5815 6.07166 21.4931 3.70889 24.4506 3.70889L24.5367 3.70973C25.3336 3.72234 26.085 3.80724 26.7705 3.96274C26.8613 3.98333 26.9546 3.9371 26.9936 3.8522C27.0298 3.77445 27.0117 3.6841 26.9508 3.62568L27.3748 2.9524C27.424 2.87423 27.4127 2.77169 27.3471 2.70613C27.2811 2.64098 27.179 2.62964 27.1008 2.67881L26.1829 3.26046L24.9721 2.66914L25.9854 1.88197C26.0627 1.82188 26.0846 1.71513 26.0371 1.62897C25.99 1.54366 25.8871 1.50499 25.7959 1.53861C25.7866 1.54239 24.8456 1.88155 23.7752 2.03537C23.7286 2.04252 23.6777 2.04462 23.6231 2.04462C22.7392 2.04462 20.9228 1.29864 20.0587 0.919973C20.769 0.719924 22.1555 0.393374 23.6399 0.393374C24.8578 0.393374 25.903 0.611074 26.7474 1.03975C29.5997 2.488 30.0734 4.22751 30.0772 4.24432C30.0801 4.25482 30.0885 4.27962 30.0936 4.29013L30.1041 4.31618C30.1255 4.36704 30.1671 4.40696 30.2192 4.42587C30.2709 4.44479 30.3289 4.44058 30.3785 4.41495C31.0392 4.0678 32.2437 3.64879 34.1219 3.71436C36.6927 3.80429 39.1391 5.96281 40.0351 6.8458C38.8587 6.74073 36.836 6.47301 36.2459 6.02711Z" fill="#514D4D"/>
</g>
<g clip-path="url(#clip2_7_33)">
<path d="M-0.00352248 10.8628C0.0954139 10.752 2.44808 8.1516 5.07412 8.06057C6.46119 8.01327 7.39945 8.29155 7.96769 8.55655C8.1226 8.15776 8.71524 7.01289 10.6572 6.03129C11.355 5.67883 12.2109 5.5 13.2025 5.5C14.9036 5.5 16.3988 6.01866 16.4619 6.04036C16.5205 6.0611 16.5612 6.1152 16.5641 6.17707C16.5673 6.23895 16.5322 6.29662 16.4762 6.32286C16.3835 6.36627 14.1961 7.38415 13.2159 7.38415C13.1576 7.38415 13.1036 7.38058 13.0544 7.37378C12.7518 7.33037 12.4654 7.27011 12.2193 7.20888L12.5546 7.46837C12.5965 7.50077 12.6183 7.5526 12.6131 7.60476C12.6076 7.65724 12.5754 7.70324 12.5275 7.72657L11.7725 8.09362C12.0101 8.07223 12.2542 8.0596 12.5035 8.05539L12.5754 8.05474C15.5259 8.05474 18.2968 10.8233 18.4133 10.9412C18.4572 10.9853 18.4699 11.0514 18.4455 11.1087C18.4208 11.1654 18.3703 11.2062 18.302 11.201C18.1728 11.1991 15.1331 11.1482 14.2918 10.5794C13.9712 10.3626 13.6813 10.1333 13.4456 9.93338L13.7027 10.454C13.7262 10.5013 13.7232 10.557 13.6953 10.602C13.6669 10.6471 13.6178 10.6743 13.5648 10.6743H11.9993C11.946 10.6743 11.8965 10.6467 11.8688 10.6014L11.6729 10.2849L11.6921 10.4592C11.7003 10.5346 11.6514 10.6049 11.5776 10.6237C11.5561 10.6292 11.0494 10.7562 10.3584 10.7562C10.3536 10.7562 10.3487 10.7562 10.3435 10.7559C11.4054 11.3442 12.3378 12.193 13.154 13.173C13.1553 13.1736 13.1596 13.1756 13.1602 13.1759L13.1589 13.1785C14.381 14.6473 15.3404 16.4145 16.0632 18.0709C16.0671 18.0738 16.072 18.0774 16.0727 18.0777L16.0684 18.0832C17.2706 20.8408 17.8239 23.2805 17.8701 23.4881C17.8848 23.5546 17.8529 23.6236 17.7923 23.656C17.3627 23.8837 16.886 24 16.375 24C15.5119 24 14.8558 23.6712 14.8278 23.6573C14.7777 23.6317 14.7455 23.5808 14.7442 23.5244C14.6029 16.7106 9.757 11.3235 9.15818 10.684C8.67326 11.9157 7.61913 12.7091 7.57227 12.7437C7.51108 12.7891 7.42549 12.7829 7.37147 12.7288L7.24747 12.6047L7.37147 12.9553C7.38969 13.0052 7.3796 13.0609 7.34641 13.1023L6.36323 14.313C6.32971 14.3541 6.27828 14.3749 6.22491 14.3687C6.17251 14.3619 6.12662 14.3292 6.10449 14.2809L5.85846 13.7545C5.86692 14.0626 5.86431 14.4312 5.83177 14.8161C5.7478 15.8242 3.8768 18.2105 3.79739 18.3113C3.75899 18.3596 3.69553 18.3809 3.63467 18.3641C3.57478 18.3469 3.5315 18.2957 3.52369 18.2345C3.50449 18.0677 3.07652 14.1209 4.983 11.8457C5.48256 11.2499 6.00751 10.7572 6.54971 10.3746C6.22231 10.3571 6.00946 10.3147 5.99807 10.3124C5.92355 10.2972 5.87082 10.2295 5.87538 10.154L5.87994 10.0814L5.76147 10.2965C5.73609 10.3432 5.68792 10.3733 5.63455 10.3759L4.26018 10.4452C4.25725 10.4452 4.25465 10.4452 4.25204 10.4452C4.25074 10.4456 4.25009 10.4456 4.24944 10.4452C4.16417 10.4452 4.0955 10.3769 4.0955 10.2923C4.0955 10.2603 4.10526 10.2308 4.12219 10.2062L4.2784 9.84299C4.09257 10.015 3.87029 10.2062 3.62686 10.3898C2.90859 10.9299 0.23438 11.1097 0.121449 11.1168C0.057336 11.1181 0.000708632 11.087 -0.026629 11.0313C-0.0539667 10.9759 -0.0448544 10.9095 -0.00352248 10.8628ZM14.4129 15.5463C13.9777 14.809 13.4935 14.0956 12.9594 13.4415C12.8641 13.4046 12.6411 13.3382 12.4338 13.4276C12.246 13.5086 12.1061 13.7059 12.0133 14.0059C12.384 14.611 12.7583 15.281 13.1117 16.0057C13.4772 15.5978 14.0015 15.5132 14.4129 15.5463ZM14.6199 15.9056C14.3631 15.8485 13.6582 15.7585 13.2676 16.3342C13.5319 16.8988 13.7812 17.4949 14.0057 18.1185C14.6234 17.6647 15.2105 17.7158 15.6001 17.8448C15.3082 17.202 14.9824 16.5483 14.6199 15.9056ZM16.7854 20.8589C16.5123 20.7338 15.5158 20.3428 14.7595 20.843C14.8373 21.2451 14.901 21.6539 14.9492 22.0695C15.8761 21.743 16.7278 21.9118 17.1629 22.0462C17.0584 21.695 16.9325 21.2946 16.7854 20.8589ZM16.6454 20.4526C16.4101 19.783 16.126 19.0444 15.7944 18.2815C15.5676 18.1438 14.8753 17.8247 14.12 18.4409C14.3445 19.1004 14.5388 19.7892 14.6915 20.5022C15.3889 20.1118 16.1898 20.2907 16.6454 20.4526ZM16.374 23.6932C16.7925 23.6932 17.185 23.607 17.5421 23.4383C17.5011 23.2675 17.4119 22.9118 17.2742 22.4282C17.0383 22.3349 16.0463 21.9979 14.9844 22.4035C15.0159 22.7392 15.0387 23.078 15.0481 23.4214C15.2408 23.503 15.754 23.6932 16.374 23.6932ZM11.7976 13.6599C11.9203 13.4023 12.0892 13.2232 12.3046 13.1305C12.4185 13.0816 12.5318 13.0631 12.6379 13.0609C11.7621 12.0676 10.7597 11.2428 9.62129 10.7394C10.0561 11.2312 10.901 12.249 11.7976 13.6599ZM3.44168 10.1459C4.11015 9.64311 4.62077 9.06355 4.62598 9.05804C4.67545 9.00135 4.75942 8.98871 4.82353 9.02888C4.88699 9.06906 4.91238 9.14972 4.88276 9.21872L4.4906 10.1274L5.53268 10.0749L5.93689 9.34021C5.97139 9.27769 6.04461 9.24691 6.11393 9.26667C6.18293 9.28643 6.22914 9.35122 6.22491 9.42185L6.19041 10.0335C6.35965 10.0568 6.67728 10.0889 7.05806 10.0707C7.12966 10.0659 7.19214 10.1125 7.21297 10.1799C7.23315 10.247 7.20451 10.3195 7.14365 10.3552C6.47713 10.7465 5.82949 11.3134 5.2196 12.0414C3.73848 13.8086 3.74337 16.7459 3.79999 17.8046C4.419 16.9785 5.47052 15.453 5.52585 14.7902C5.60526 13.8436 5.49851 12.9715 5.49786 12.9627C5.48875 12.8882 5.53529 12.8176 5.60786 12.7969C5.62186 12.7926 5.6365 12.7907 5.64984 12.7907C5.70875 12.7907 5.76375 12.8244 5.78979 12.8791L6.27959 13.9288L7.05415 12.975L6.73196 12.0663C6.70788 11.9986 6.73391 11.9238 6.79445 11.8856C6.85531 11.848 6.93471 11.8567 6.98483 11.9069L7.49286 12.4136C7.78186 12.171 8.60199 11.4148 8.94078 10.3837C8.96584 10.3056 9.04883 10.2609 9.12954 10.2845C9.22294 10.3114 9.32578 10.3357 9.45141 10.361C9.47191 10.3655 9.49111 10.374 9.50771 10.385C9.52691 10.3808 9.54579 10.3804 9.56531 10.384C9.81689 10.4268 10.0841 10.4485 10.3594 10.4485C10.8118 10.4485 11.1854 10.3895 11.3729 10.3532L11.2961 9.64279C11.2882 9.57152 11.3309 9.50446 11.3989 9.48146C11.4669 9.45878 11.5414 9.48534 11.5795 9.54625L12.0866 10.3665H13.3184L12.8058 9.32725C12.7723 9.25987 12.7934 9.17823 12.8553 9.13514C12.9168 9.09173 13.0014 9.10016 13.0541 9.15393C13.0603 9.16041 13.6748 9.79116 14.464 10.3247C15.0169 10.6982 16.8703 10.8431 17.9046 10.8826C17.1206 10.1802 14.8659 8.35894 12.5757 8.35894L12.509 8.35959C11.8919 8.3693 11.31 8.43474 10.7792 8.55461C10.7089 8.57048 10.6367 8.53485 10.6064 8.46941C10.5784 8.40948 10.5924 8.33982 10.6396 8.29479L10.3112 7.77581C10.2732 7.71556 10.282 7.63651 10.3327 7.58597C10.3838 7.53576 10.4629 7.52701 10.5234 7.56491L11.2342 8.01327L12.1718 7.55746L11.3872 6.95069C11.3273 6.90436 11.3104 6.82208 11.3471 6.75566C11.3836 6.6899 11.4633 6.6601 11.534 6.68601C11.5411 6.68893 12.2698 6.95036 13.0987 7.06893C13.1348 7.07444 13.1742 7.07606 13.2165 7.07606C13.9009 7.07606 15.3075 6.50103 15.9767 6.20915C15.4266 6.05494 14.353 5.80323 13.2035 5.80323C12.2604 5.80323 11.451 5.97104 10.7971 6.30147C8.58832 7.41784 8.22154 8.7587 8.21861 8.77166C8.21633 8.77976 8.20982 8.79887 8.20592 8.80697L8.19778 8.82706C8.18118 8.86626 8.14896 8.89703 8.10861 8.91161C8.06858 8.92619 8.02367 8.92295 7.98526 8.90319C7.47366 8.6356 6.54092 8.31261 5.08649 8.36315C3.09572 8.43248 1.20129 10.0963 0.507432 10.777C1.41836 10.696 2.98475 10.4896 3.44168 10.1459Z" fill="#514D4D"/>
</g>
</g>
<defs>
<clipPath id="clip0_7_33">
<rect width="41" height="24" fill="white"/>
</clipPath>
<clipPath id="clip1_7_33">
<rect width="24" height="24" fill="white" transform="translate(16.8)"/>
</clipPath>
<clipPath id="clip2_7_33">
<rect width="18.5" height="18.5" fill="white" transform="matrix(-1 0 0 1 18.5 5.5)"/>
</clipPath>
</defs>
</svg>
