<svg width="320" height="320" viewBox="0 0 320 320" fill="none" xmlns="http://www.w3.org/2000/svg">
<rect width="320" height="320" fill="#514D4D"/>
<path d="M131.37 190.77C128.217 190.77 125.467 190.165 123.12 188.955C120.81 187.745 119.032 186.058 117.785 183.895C116.575 181.732 115.97 179.22 115.97 176.36C115.97 174.527 116.153 172.803 116.52 171.19L120.37 170.695C120.04 172.125 119.875 173.738 119.875 175.535C119.875 179.202 120.92 182.062 123.01 184.115C125.1 186.132 127.887 187.14 131.37 187.14C135.183 187.14 138.172 186.095 140.335 184.005C142.535 181.915 143.635 179.11 143.635 175.59C143.635 172.327 142.7 169.723 140.83 167.78C138.96 165.8 136.503 164.81 133.46 164.81C131.077 164.81 129.207 165.397 127.85 166.57C126.53 167.707 125.87 169.228 125.87 171.135C125.87 173.298 126.823 175.572 128.73 177.955L125.1 179.055C123.01 176.488 121.965 173.83 121.965 171.08C121.965 169.283 122.423 167.633 123.34 166.13C124.257 164.627 125.595 163.435 127.355 162.555C129.115 161.638 131.187 161.18 133.57 161.18C136.503 161.18 139.033 161.803 141.16 163.05C143.287 164.26 144.918 165.965 146.055 168.165C147.192 170.365 147.76 172.877 147.76 175.7C147.76 178.597 147.082 181.2 145.725 183.51C144.368 185.783 142.443 187.562 139.95 188.845C137.493 190.128 134.633 190.77 131.37 190.77ZM163.136 190.77C160.13 190.77 157.783 190.055 156.096 188.625C154.446 187.158 153.621 185.215 153.621 182.795C153.621 180.192 154.556 178.157 156.426 176.69C158.296 175.223 160.918 174.49 164.291 174.49C168.508 174.49 172.193 175.572 175.346 177.735C175.786 176.415 176.006 175.003 176.006 173.5C176.006 170.713 175.181 168.568 173.531 167.065C171.918 165.562 169.59 164.81 166.546 164.81C164.09 164.81 162.22 165.323 160.936 166.35C159.653 167.34 159.011 168.77 159.011 170.64C159.011 171.153 159.03 171.538 159.066 171.795L155.271 172.235C155.198 171.832 155.161 171.227 155.161 170.42C155.161 167.523 156.188 165.268 158.241 163.655C160.331 162.005 163.173 161.18 166.766 161.18C170.946 161.18 174.21 162.243 176.556 164.37C178.94 166.497 180.131 169.485 180.131 173.335C180.131 175.792 179.563 178.193 178.426 180.54C180.59 182.997 182.148 186.003 183.101 189.56L179.636 190.77C178.94 188.093 177.876 185.783 176.446 183.84C174.796 185.967 172.798 187.653 170.451 188.9C168.141 190.147 165.703 190.77 163.136 190.77ZM157.691 182.74C157.691 184.06 158.205 185.123 159.231 185.93C160.258 186.737 161.633 187.14 163.356 187.14C165.483 187.14 167.463 186.59 169.296 185.49C171.13 184.39 172.633 182.905 173.806 181.035C171.203 178.982 167.995 177.955 164.181 177.955C162.091 177.955 160.478 178.377 159.341 179.22C158.241 180.027 157.691 181.2 157.691 182.74ZM199.829 190.77C195.979 190.77 192.991 190.183 190.864 189.01C188.737 187.837 187.674 186.168 187.674 184.005C187.674 182.942 187.912 181.952 188.389 181.035C188.902 180.118 189.691 179.22 190.754 178.34L193.174 180.705C192.221 181.585 191.744 182.538 191.744 183.565C191.744 185.948 194.384 187.14 199.664 187.14C202.597 187.14 204.816 186.792 206.319 186.095C207.859 185.362 208.629 184.335 208.629 183.015C208.629 181.878 208.024 181.017 206.814 180.43C205.641 179.807 203.771 179.128 201.204 178.395C198.894 177.772 196.987 177.167 195.484 176.58C193.981 175.993 192.697 175.132 191.634 173.995C190.607 172.858 190.094 171.41 190.094 169.65C190.094 168 190.589 166.533 191.579 165.25C192.569 163.967 193.944 162.977 195.704 162.28C197.464 161.547 199.481 161.18 201.754 161.18C204.797 161.18 207.162 161.767 208.849 162.94C210.572 164.113 211.434 165.727 211.434 167.78C211.434 168.697 211.251 169.613 210.884 170.53C210.517 171.41 210.004 172.18 209.344 172.84L206.319 170.915C207.016 170.108 207.364 169.173 207.364 168.11C207.364 167.047 206.869 166.24 205.879 165.69C204.889 165.103 203.459 164.81 201.589 164.81C199.316 164.81 197.519 165.25 196.199 166.13C194.879 167.01 194.219 168.165 194.219 169.595C194.219 170.622 194.586 171.483 195.319 172.18C196.052 172.84 196.969 173.372 198.069 173.775C199.206 174.178 200.709 174.637 202.579 175.15C204.816 175.773 206.594 176.36 207.914 176.91C209.271 177.423 210.407 178.175 211.324 179.165C212.277 180.118 212.754 181.347 212.754 182.85C212.754 185.343 211.617 187.287 209.344 188.68C207.071 190.073 203.899 190.77 199.829 190.77ZM225.54 190.715C223.157 190.715 221.415 189.872 220.315 188.185C219.215 186.498 218.665 183.858 218.665 180.265C218.665 177.955 218.867 175.352 219.27 172.455C219.674 169.558 220.334 166.057 221.25 161.95H225.375C223.615 169.723 222.735 175.81 222.735 180.21C222.735 182.703 222.974 184.5 223.45 185.6C223.927 186.663 224.715 187.195 225.815 187.195C227.832 187.195 228.84 185.527 228.84 182.19C228.84 180.723 228.639 179.367 228.235 178.12C227.832 176.837 227.209 175.535 226.365 174.215L229.72 172.73C231.81 175.59 232.855 178.707 232.855 182.08C232.855 184.793 232.195 186.92 230.875 188.46C229.555 189.963 227.777 190.715 225.54 190.715ZM224.33 156.12C223.524 156.12 222.827 155.863 222.24 155.35C221.69 154.8 221.415 154.14 221.415 153.37C221.415 152.637 221.69 152.013 222.24 151.5C222.827 150.95 223.524 150.675 224.33 150.675C225.137 150.675 225.834 150.95 226.42 151.5C227.007 152.013 227.3 152.637 227.3 153.37C227.3 154.14 227.007 154.8 226.42 155.35C225.87 155.863 225.174 156.12 224.33 156.12ZM249.727 190.77C245.877 190.77 242.888 190.183 240.762 189.01C238.635 187.837 237.572 186.168 237.572 184.005C237.572 182.942 237.81 181.952 238.287 181.035C238.8 180.118 239.588 179.22 240.652 178.34L243.072 180.705C242.118 181.585 241.642 182.538 241.642 183.565C241.642 185.948 244.282 187.14 249.562 187.14C252.495 187.14 254.713 186.792 256.217 186.095C257.757 185.362 258.527 184.335 258.527 183.015C258.527 181.878 257.922 181.017 256.712 180.43C255.538 179.807 253.668 179.128 251.102 178.395C248.792 177.772 246.885 177.167 245.382 176.58C243.878 175.993 242.595 175.132 241.532 173.995C240.505 172.858 239.992 171.41 239.992 169.65C239.992 168 240.487 166.533 241.477 165.25C242.467 163.967 243.842 162.977 245.602 162.28C247.362 161.547 249.378 161.18 251.652 161.18C254.695 161.18 257.06 161.767 258.747 162.94C260.47 164.113 261.332 165.727 261.332 167.78C261.332 168.697 261.148 169.613 260.782 170.53C260.415 171.41 259.902 172.18 259.242 172.84L256.217 170.915C256.913 170.108 257.262 169.173 257.262 168.11C257.262 167.047 256.767 166.24 255.777 165.69C254.787 165.103 253.357 164.81 251.487 164.81C249.213 164.81 247.417 165.25 246.097 166.13C244.777 167.01 244.117 168.165 244.117 169.595C244.117 170.622 244.483 171.483 245.217 172.18C245.95 172.84 246.867 173.372 247.967 173.775C249.103 174.178 250.607 174.637 252.477 175.15C254.713 175.773 256.492 176.36 257.812 176.91C259.168 177.423 260.305 178.175 261.222 179.165C262.175 180.118 262.652 181.347 262.652 182.85C262.652 185.343 261.515 187.287 259.242 188.68C256.968 190.073 253.797 190.77 249.727 190.77Z" fill="#FFF8C9"/>
<path d="M199.88 200V202.92H199.44C199.333 202.733 199.22 202.393 199.1 201.9C198.993 201.407 198.927 201.02 198.9 200.74H193.32V206.76H197.48C197.507 206.52 197.553 206.24 197.62 205.92C197.687 205.587 197.767 205.313 197.86 205.1H198.18V209.14H197.86C197.767 208.913 197.687 208.64 197.62 208.32C197.553 207.987 197.507 207.707 197.48 207.48H193.32V213.4C194.013 213.507 194.573 213.633 195 213.78V214H189.8V213.76C190.36 213.587 190.913 213.467 191.46 213.4V200.62C190.78 200.513 190.227 200.387 189.8 200.24V200H199.88ZM203.286 202.98C202.953 202.98 202.68 202.88 202.466 202.68C202.266 202.48 202.166 202.22 202.166 201.9C202.166 201.58 202.266 201.32 202.466 201.12C202.68 200.907 202.953 200.8 203.286 200.8C203.62 200.8 203.886 200.907 204.086 201.12C204.3 201.32 204.406 201.58 204.406 201.9C204.406 202.22 204.3 202.48 204.086 202.68C203.886 202.88 203.62 202.98 203.286 202.98ZM200.926 213.78C201.18 213.687 201.486 213.607 201.846 213.54C202.206 213.46 202.433 213.413 202.526 213.4V204.74C201.993 204.647 201.526 204.533 201.126 204.4V204.24L204.326 203.92V213.4C204.94 213.507 205.473 213.633 205.926 213.78V214H200.926V213.78ZM207.961 204.6C207.361 204.507 206.914 204.393 206.621 204.26V204.04H211.241V204.28C210.921 204.427 210.408 204.547 209.701 204.64L212.341 212.54L215.221 204.62C214.581 204.54 214.081 204.427 213.721 204.28V204.04H217.581V204.26C217.261 204.393 216.821 204.507 216.261 204.6L212.741 214H211.281L207.961 204.6ZM227.224 209.04H219.524C219.537 210.347 219.871 211.42 220.524 212.26C221.191 213.1 222.151 213.52 223.404 213.52C223.937 213.52 224.491 213.433 225.064 213.26C225.651 213.073 226.157 212.833 226.584 212.54L226.764 213.06C226.377 213.38 225.844 213.653 225.164 213.88C224.497 214.093 223.764 214.2 222.964 214.2C221.911 214.2 220.984 213.987 220.184 213.56C219.397 213.12 218.784 212.513 218.344 211.74C217.917 210.953 217.704 210.053 217.704 209.04C217.704 207.4 218.151 206.127 219.044 205.22C219.951 204.313 221.191 203.86 222.764 203.86C223.764 203.86 224.597 204.073 225.264 204.5C225.931 204.927 226.424 205.5 226.744 206.22C227.064 206.927 227.224 207.713 227.224 208.58V209.04ZM225.624 208.34C225.624 207.74 225.531 207.153 225.344 206.58C225.157 206.007 224.851 205.533 224.424 205.16C224.011 204.773 223.471 204.58 222.804 204.58C221.804 204.58 221.031 204.933 220.484 205.64C219.951 206.347 219.637 207.247 219.544 208.34H225.624ZM237.803 214.2C236.923 214.2 236.149 214.093 235.483 213.88C234.816 213.667 234.276 213.373 233.863 213L234.003 210.5H234.423C234.489 210.687 234.549 211.02 234.603 211.5C234.669 211.98 234.709 212.393 234.723 212.74C235.323 213.247 236.136 213.5 237.163 213.5C237.989 213.5 238.636 213.32 239.103 212.96C239.583 212.587 239.823 212.093 239.823 211.48C239.823 210.973 239.609 210.58 239.183 210.3C238.756 210.007 238.103 209.707 237.223 209.4C236.489 209.12 235.903 208.873 235.463 208.66C235.023 208.433 234.643 208.127 234.323 207.74C234.016 207.353 233.863 206.867 233.863 206.28C233.863 205.48 234.216 204.88 234.923 204.48C235.629 204.067 236.516 203.86 237.583 203.86C239.089 203.86 240.256 204.207 241.083 204.9L240.903 206.96H240.463C240.383 206.76 240.316 206.487 240.263 206.14C240.223 205.793 240.203 205.467 240.203 205.16C239.603 204.76 238.856 204.56 237.963 204.56C237.256 204.56 236.689 204.687 236.263 204.94C235.836 205.18 235.623 205.553 235.623 206.06C235.623 206.42 235.736 206.727 235.963 206.98C236.203 207.233 236.496 207.447 236.843 207.62C237.189 207.793 237.663 207.993 238.263 208.22C238.996 208.5 239.583 208.76 240.023 209C240.463 209.227 240.836 209.533 241.143 209.92C241.463 210.307 241.623 210.787 241.623 211.36C241.623 212.28 241.263 212.987 240.543 213.48C239.823 213.96 238.909 214.2 237.803 214.2ZM249.46 213.9C248.86 214.1 248.18 214.2 247.42 214.2C246.473 214.2 245.733 213.96 245.2 213.48C244.667 213 244.4 212.26 244.4 211.26V204.76H242.66V204.04H244.4V202.94C244.907 202.727 245.22 202.193 245.34 201.34H246.2V204.04H249.2V204.76H246.2V211.26C246.2 212.06 246.353 212.627 246.66 212.96C246.98 213.293 247.433 213.46 248.02 213.46C248.407 213.46 248.84 213.38 249.32 213.22L249.46 213.9ZM253.876 214.2C252.809 214.2 251.996 213.953 251.436 213.46C250.876 212.967 250.596 212.253 250.596 211.32C250.596 210.293 250.963 209.553 251.696 209.1C252.429 208.633 253.363 208.4 254.496 208.4H257.456V206.8C257.456 206.04 257.229 205.48 256.776 205.12C256.323 204.76 255.683 204.58 254.856 204.58C254.336 204.58 253.796 204.66 253.236 204.82C252.689 204.967 252.183 205.16 251.716 205.4L251.576 204.78C252.109 204.5 252.709 204.28 253.376 204.12C254.056 203.947 254.749 203.86 255.456 203.86C256.643 203.86 257.576 204.12 258.256 204.64C258.936 205.147 259.276 205.827 259.276 206.68V213.24C259.743 213.333 260.203 213.44 260.656 213.56V213.72L257.456 214.04V212.58C256.909 213.167 256.323 213.587 255.696 213.84C255.083 214.08 254.476 214.2 253.876 214.2ZM254.516 213.46C255.063 213.46 255.616 213.293 256.176 212.96C256.749 212.613 257.176 212.213 257.456 211.76V209.12H254.936C254.083 209.12 253.443 209.313 253.016 209.7C252.589 210.073 252.376 210.607 252.376 211.3C252.376 212.02 252.569 212.56 252.956 212.92C253.356 213.28 253.876 213.46 254.516 213.46ZM261.158 213.78C261.611 213.607 262.144 213.48 262.758 213.4V204.72C262.171 204.613 261.711 204.493 261.378 204.36V204.22L264.358 203.88L264.518 205.6H264.598C264.811 205.12 265.144 204.713 265.598 204.38C266.051 204.033 266.544 203.86 267.078 203.86C267.731 203.86 268.284 204.007 268.738 204.3L268.398 205.24C268.064 204.987 267.691 204.86 267.278 204.86C266.731 204.86 266.224 205.047 265.758 205.42C265.291 205.78 264.891 206.24 264.558 206.8V213.4C265.144 213.493 265.678 213.62 266.158 213.78V214H261.158V213.78ZM274.913 213.78C275.206 213.687 275.74 213.56 276.513 213.4V200.7C275.953 200.593 275.486 200.473 275.113 200.34V200.2L278.313 199.86V213.4C278.886 213.493 279.42 213.62 279.913 213.78V214H274.913V213.78ZM283.443 202.98C283.109 202.98 282.836 202.88 282.623 202.68C282.423 202.48 282.323 202.22 282.323 201.9C282.323 201.58 282.423 201.32 282.623 201.12C282.836 200.907 283.109 200.8 283.443 200.8C283.776 200.8 284.043 200.907 284.243 201.12C284.456 201.32 284.563 201.58 284.563 201.9C284.563 202.22 284.456 202.48 284.243 202.68C284.043 202.88 283.776 202.98 283.443 202.98ZM281.083 213.78C281.336 213.687 281.643 213.607 282.003 213.54C282.363 213.46 282.589 213.413 282.683 213.4V204.74C282.149 204.647 281.683 204.533 281.283 204.4V204.24L284.483 203.92V213.4C285.096 213.507 285.629 213.633 286.083 213.78V214H281.083V213.78ZM292.657 200.42C292.097 200.42 291.651 200.62 291.317 201.02C290.997 201.407 290.837 202.007 290.837 202.82V204.04H293.857V204.76H290.837V213.4C291.464 213.493 292.024 213.62 292.517 213.78V214H287.417V213.78C288.097 213.567 288.637 213.44 289.037 213.4V204.76H287.137V204.04H289.037V203.2C289.037 202.053 289.291 201.18 289.797 200.58C290.317 199.98 291.071 199.68 292.057 199.68C292.777 199.68 293.457 199.787 294.097 200L293.957 200.68C293.504 200.507 293.071 200.42 292.657 200.42ZM303.884 209.04H296.184C296.198 210.347 296.531 211.42 297.184 212.26C297.851 213.1 298.811 213.52 300.064 213.52C300.598 213.52 301.151 213.433 301.724 213.26C302.311 213.073 302.818 212.833 303.244 212.54L303.424 213.06C303.038 213.38 302.504 213.653 301.824 213.88C301.158 214.093 300.424 214.2 299.624 214.2C298.571 214.2 297.644 213.987 296.844 213.56C296.058 213.12 295.444 212.513 295.004 211.74C294.578 210.953 294.364 210.053 294.364 209.04C294.364 207.4 294.811 206.127 295.704 205.22C296.611 204.313 297.851 203.86 299.424 203.86C300.424 203.86 301.258 204.073 301.924 204.5C302.591 204.927 303.084 205.5 303.404 206.22C303.724 206.927 303.884 207.713 303.884 208.58V209.04ZM302.284 208.34C302.284 207.74 302.191 207.153 302.004 206.58C301.818 206.007 301.511 205.533 301.084 205.16C300.671 204.773 300.131 204.58 299.464 204.58C298.464 204.58 297.691 204.933 297.144 205.64C296.611 206.347 296.298 207.247 296.204 208.34H302.284ZM306.408 202.04C306.408 201.84 306.394 201.567 306.368 201.22C306.368 200.273 306.714 199.8 307.408 199.8C308.114 199.8 308.468 200.273 308.468 201.22C308.441 201.593 308.428 201.867 308.428 202.04L307.828 211.42H307.008L306.408 202.04ZM307.428 214.2C307.094 214.2 306.828 214.107 306.628 213.92C306.441 213.733 306.348 213.48 306.348 213.16C306.348 212.827 306.441 212.567 306.628 212.38C306.828 212.18 307.094 212.08 307.428 212.08C307.748 212.08 308.001 212.18 308.188 212.38C308.388 212.567 308.488 212.827 308.488 213.16C308.488 213.48 308.388 213.733 308.188 213.92C308.001 214.107 307.748 214.2 307.428 214.2Z" fill="#FFF8C9"/>
<g clip-path="url(#clip0_1_2)">
<path d="M172.58 121.829C172.069 121.254 159.916 107.76 146.351 107.287C139.187 107.042 134.34 108.486 131.405 109.861C130.605 107.792 127.543 101.851 117.512 96.757C113.908 94.928 109.487 94 104.365 94C95.5777 94 87.8548 96.6914 87.5286 96.804C87.226 96.9116 87.0159 97.1924 87.0008 97.5135C86.984 97.8346 87.1655 98.1338 87.4547 98.27C87.9338 98.4952 99.2323 103.777 104.296 103.777C104.597 103.777 104.876 103.759 105.13 103.723C106.693 103.498 108.172 103.185 109.443 102.868L107.712 104.214C107.495 104.382 107.382 104.651 107.409 104.922C107.438 105.194 107.604 105.433 107.851 105.554L111.751 107.459C110.524 107.348 109.263 107.282 107.976 107.26L107.604 107.257C92.3634 107.257 78.0507 121.624 77.4488 122.235C77.2219 122.464 77.1563 122.807 77.2824 123.105C77.4102 123.399 77.6707 123.611 78.0238 123.584C78.6912 123.574 94.3925 123.31 98.7381 120.358C100.394 119.233 101.892 118.043 103.109 117.006L101.781 119.707C101.66 119.953 101.675 120.242 101.82 120.475C101.966 120.709 102.22 120.85 102.494 120.85H110.58C110.855 120.85 111.111 120.707 111.254 120.472L112.266 118.83L112.167 119.734C112.125 120.126 112.377 120.491 112.758 120.588C112.869 120.617 115.487 121.276 119.056 121.276C119.081 121.276 119.106 121.276 119.133 121.274C113.648 124.327 108.831 128.731 104.615 133.816C104.608 133.82 104.587 133.83 104.583 133.832L104.59 133.845C98.2775 141.467 93.3216 150.637 89.588 159.233C89.5678 159.248 89.5426 159.266 89.5392 159.268L89.5611 159.297C83.3511 173.606 80.4933 186.266 80.2546 187.344C80.1789 187.689 80.3437 188.047 80.6564 188.215C82.8754 189.396 85.3382 190 87.9775 190C92.4357 190 95.8248 188.294 95.9694 188.221C96.2282 188.089 96.3947 187.825 96.4014 187.532C97.131 152.174 122.162 124.219 125.256 120.901C127.76 127.292 133.205 131.409 133.447 131.589C133.763 131.824 134.206 131.792 134.485 131.512L135.125 130.868L134.485 132.687C134.391 132.946 134.443 133.235 134.614 133.45L139.693 139.732C139.866 139.946 140.131 140.053 140.407 140.021C140.678 139.986 140.915 139.816 141.029 139.566L142.3 136.834C142.256 138.433 142.27 140.346 142.438 142.343C142.872 147.574 152.536 159.957 152.946 160.48C153.145 160.731 153.473 160.842 153.787 160.754C154.096 160.665 154.32 160.399 154.36 160.082C154.459 159.216 156.67 138.735 146.822 126.929C144.242 123.838 141.53 121.281 138.729 119.295C140.421 119.204 141.52 118.984 141.579 118.973C141.964 118.893 142.236 118.542 142.213 118.15L142.189 117.774L142.801 118.89C142.932 119.132 143.181 119.289 143.457 119.302L150.556 119.662C150.571 119.662 150.584 119.662 150.598 119.662C150.605 119.663 150.608 119.663 150.611 119.662C151.052 119.662 151.406 119.307 151.406 118.868C151.406 118.702 151.356 118.549 151.269 118.421L150.462 116.537C151.422 117.429 152.57 118.421 153.827 119.374C157.537 122.177 171.351 123.11 171.934 123.147C172.265 123.153 172.558 122.992 172.699 122.703C172.84 122.415 172.793 122.071 172.58 121.829ZM98.1127 146.132C100.36 142.306 102.862 138.604 105.62 135.21C106.113 135.018 107.265 134.674 108.335 135.138C109.305 135.558 110.028 136.582 110.507 138.139C108.593 141.279 106.659 144.755 104.834 148.516C102.946 146.399 100.238 145.961 98.1127 146.132ZM97.0436 147.996C98.3699 147.701 102.011 147.233 104.028 150.221C102.663 153.151 101.376 156.244 100.216 159.48C97.0251 157.125 93.9924 157.39 91.9801 158.059C93.4881 154.724 95.1708 151.332 97.0436 147.996ZM85.8576 173.7C87.2681 173.051 92.4155 171.022 96.3224 173.618C95.9206 175.704 95.5911 177.826 95.3423 179.982C90.5546 178.288 86.1552 179.164 83.9076 179.861C84.4472 178.039 85.0978 175.961 85.8576 173.7ZM86.5805 171.592C87.7959 168.117 89.2635 164.284 90.9765 160.325C92.1482 159.611 95.7239 157.955 99.6257 161.153C98.4658 164.575 97.4622 168.149 96.6737 171.849C93.0712 169.824 88.934 170.752 86.5805 171.592ZM87.9825 188.408C85.8206 188.408 83.7933 187.961 81.9491 187.085C82.1609 186.199 82.6215 184.353 83.3326 181.843C84.5514 181.359 89.6754 179.611 95.1608 181.716C94.9977 183.457 94.88 185.216 94.8313 186.998C93.8361 187.421 91.185 188.408 87.9825 188.408ZM111.622 136.343C110.988 135.007 110.116 134.077 109.003 133.596C108.414 133.342 107.829 133.247 107.281 133.235C111.805 128.081 116.983 123.801 122.863 121.188C120.617 123.74 116.253 129.022 111.622 136.343ZM154.784 118.108C151.331 115.499 148.693 112.492 148.666 112.463C148.411 112.169 147.977 112.104 147.646 112.312C147.318 112.521 147.187 112.939 147.34 113.297L149.366 118.013L143.983 117.74L141.895 113.928C141.717 113.603 141.338 113.443 140.98 113.546C140.624 113.649 140.385 113.985 140.407 114.351L140.585 117.525C139.711 117.646 138.07 117.813 136.104 117.718C135.734 117.693 135.411 117.935 135.303 118.285C135.199 118.633 135.347 119.009 135.661 119.194C139.104 121.225 142.45 124.167 145.6 127.944C153.251 137.115 153.225 152.357 152.933 157.851C149.735 153.564 144.304 145.648 144.018 142.208C143.608 137.296 144.159 132.771 144.163 132.725C144.21 132.339 143.969 131.972 143.594 131.865C143.522 131.843 143.447 131.833 143.378 131.833C143.073 131.833 142.789 132.008 142.655 132.292L140.125 137.738L136.124 132.789L137.788 128.074C137.912 127.723 137.778 127.334 137.465 127.136C137.151 126.941 136.741 126.986 136.482 127.247L133.858 129.876C132.365 128.617 128.128 124.693 126.378 119.342C126.249 118.937 125.82 118.705 125.403 118.828C124.921 118.967 124.39 119.094 123.741 119.225C123.635 119.248 123.536 119.292 123.45 119.349C123.351 119.327 123.253 119.326 123.152 119.344C121.853 119.566 120.473 119.679 119.051 119.679C116.714 119.679 114.784 119.373 113.816 119.184L114.212 115.498C114.253 115.128 114.033 114.78 113.681 114.661C113.33 114.543 112.945 114.681 112.748 114.997L110.129 119.253H103.766L106.414 113.86C106.587 113.511 106.478 113.087 106.158 112.863C105.841 112.638 105.404 112.682 105.131 112.961C105.099 112.995 101.925 116.268 97.8488 119.036C94.9926 120.975 85.4189 121.726 80.0764 121.931C84.1261 118.287 95.7727 108.836 107.602 108.836L107.947 108.839C111.134 108.889 114.14 109.229 116.882 109.851C117.245 109.933 117.618 109.748 117.775 109.409C117.919 109.098 117.847 108.736 117.603 108.503L119.299 105.81C119.496 105.497 119.451 105.087 119.188 104.825C118.925 104.564 118.516 104.519 118.203 104.715L114.532 107.042L109.689 104.677L113.742 101.528C114.051 101.288 114.139 100.861 113.949 100.516C113.76 100.175 113.348 100.02 112.984 100.154C112.947 100.17 109.183 101.526 104.901 102.141C104.714 102.17 104.511 102.178 104.292 102.178C100.757 102.178 93.4914 99.1946 90.0351 97.6799C92.8762 96.8797 98.4221 95.5735 104.36 95.5735C109.231 95.5735 113.412 96.4443 116.79 98.159C128.199 103.952 130.094 110.91 130.109 110.977C130.121 111.019 130.154 111.118 130.174 111.161L130.216 111.265C130.302 111.468 130.469 111.628 130.677 111.703C130.884 111.779 131.116 111.762 131.314 111.66C133.957 110.271 138.775 108.595 146.288 108.857C156.571 109.217 166.356 117.851 169.94 121.383C165.235 120.963 157.144 119.892 154.784 118.108Z" fill="#FFF8C9"/>
</g>
<g clip-path="url(#clip1_1_2)">
<path d="M10.3239 137.451C10.7179 137.008 20.0855 126.606 30.5416 126.242C36.0644 126.053 39.8003 127.166 42.0629 128.226C42.6797 126.631 45.0394 122.052 52.7716 118.125C55.5499 116.715 58.958 116 62.9064 116C69.6797 116 75.6328 118.075 75.8842 118.161C76.1174 118.244 76.2794 118.461 76.2911 118.708C76.304 118.956 76.1641 119.186 75.9412 119.291C75.5719 119.465 66.8626 123.537 62.9595 123.537C62.7276 123.537 62.5124 123.522 62.3168 123.495C61.1116 123.321 59.9713 123.08 58.9917 122.836L60.3264 123.873C60.4935 124.003 60.5804 124.21 60.5596 124.419C60.5376 124.629 60.4093 124.813 60.2188 124.906L57.2125 126.374C58.1584 126.289 59.1303 126.238 60.1229 126.222L60.4093 126.219C72.1574 126.219 83.1901 137.293 83.654 137.765C83.8289 137.941 83.8795 138.205 83.7823 138.435C83.6838 138.662 83.483 138.825 83.2108 138.804C82.6964 138.796 70.5933 138.593 67.2435 136.317C65.9671 135.45 64.8126 134.533 63.8744 133.734L64.8981 135.816C64.9914 136.005 64.9797 136.228 64.8683 136.408C64.7555 136.588 64.5599 136.697 64.3486 136.697H58.1157C57.9032 136.697 57.7062 136.587 57.596 136.406L56.816 135.139L56.8924 135.837C56.9248 136.139 56.7304 136.42 56.4363 136.495C56.3507 136.517 54.3331 137.025 51.5821 137.025C51.5626 137.025 51.5432 137.025 51.5225 137.024C55.7508 139.377 59.4633 142.772 62.7133 146.692C62.7185 146.694 62.7353 146.702 62.7379 146.704L62.7327 146.714C67.5986 152.589 71.4187 159.658 74.2968 166.284C74.3123 166.295 74.3318 166.31 74.3344 166.311L74.3175 166.333C79.1043 177.363 81.3073 187.122 81.4913 187.953C81.5496 188.218 81.4226 188.494 81.1816 188.624C79.4711 189.535 77.5727 190 75.5382 190C72.1016 190 69.4892 188.685 69.3778 188.629C69.1782 188.527 69.0499 188.323 69.0448 188.098C68.4824 160.842 49.1874 139.294 46.803 136.736C44.8722 141.663 40.675 144.836 40.4884 144.975C40.2448 145.156 39.904 145.132 39.6889 144.915L39.1952 144.419L39.6889 145.821C39.7615 146.021 39.7213 146.244 39.5891 146.409L35.6744 151.252C35.5409 151.416 35.3362 151.499 35.1237 151.475C34.915 151.448 34.7323 151.317 34.6442 151.124L33.6645 149.018C33.6982 150.25 33.6879 151.725 33.5583 153.264C33.224 157.297 25.7742 166.842 25.458 167.245C25.3051 167.438 25.0524 167.524 24.8101 167.456C24.5717 167.388 24.3993 167.183 24.3682 166.938C24.2918 166.271 22.5877 150.483 30.1787 141.383C32.1679 139 34.258 137.029 36.4169 135.498C35.1133 135.428 34.2658 135.259 34.2205 135.25C33.9237 135.189 33.7138 134.918 33.7319 134.616L33.7501 134.326L33.2784 135.186C33.1773 135.373 32.9855 135.493 32.773 135.504L27.3007 135.781C27.289 135.781 27.2787 135.781 27.2683 135.781C27.2631 135.782 27.2605 135.782 27.2579 135.781C26.9184 135.781 26.645 135.508 26.645 135.169C26.645 135.041 26.6839 134.923 26.7513 134.825L27.3733 133.372C26.6333 134.06 25.7483 134.825 24.779 135.559C21.9191 137.72 11.2712 138.439 10.8215 138.467C10.5663 138.472 10.3408 138.348 10.2319 138.125C10.1231 137.904 10.1594 137.638 10.3239 137.451ZM67.7256 156.185C65.9931 153.236 64.0649 150.382 61.9384 147.766C61.5587 147.618 60.6711 147.353 59.8456 147.71C59.0979 148.034 58.5407 148.824 58.1714 150.023C59.6474 152.444 61.1376 155.124 62.5448 158.023C64.0001 156.391 66.0877 156.053 67.7256 156.185ZM68.5497 157.622C67.5273 157.394 64.7206 157.034 63.1655 159.337C64.2178 161.595 65.2104 163.98 66.1045 166.474C68.564 164.659 70.9017 164.863 72.4528 165.379C71.2904 162.808 69.9933 160.193 68.5497 157.622ZM77.1722 177.436C76.085 176.935 72.1172 175.371 69.1057 177.372C69.4154 178.98 69.6693 180.616 69.8611 182.278C73.5517 180.972 76.9429 181.647 78.6754 182.185C78.2594 180.78 77.758 179.178 77.1722 177.436ZM76.615 175.811C75.6781 173.132 74.5469 170.178 73.2264 167.126C72.3232 166.575 69.567 165.299 66.5593 167.763C67.4535 170.402 68.2271 173.157 68.8348 176.009C71.6118 174.447 74.8009 175.163 76.615 175.811ZM75.5343 188.773C77.2007 188.773 78.7635 188.428 80.1851 187.753C80.0218 187.07 79.6667 185.647 79.1186 183.713C78.1791 183.339 74.2294 181.992 70.0011 183.614C70.1268 184.957 70.2175 186.312 70.2551 187.686C71.0222 188.012 73.0657 188.773 75.5343 188.773ZM57.3123 148.64C57.8008 147.609 58.4733 146.893 59.3312 146.522C59.7847 146.326 60.2357 146.253 60.6581 146.244C57.171 142.27 53.1798 138.971 48.647 136.958C50.3782 138.925 53.7422 142.996 57.3123 148.64ZM24.0417 134.584C26.7033 132.572 28.7365 130.254 28.7572 130.232C28.9542 130.005 29.2885 129.955 29.5438 130.116C29.7965 130.276 29.8975 130.599 29.7796 130.875L28.2181 134.51L32.3674 134.3L33.9768 131.361C34.1142 131.111 34.4058 130.988 34.6818 131.067C34.9565 131.146 35.1405 131.405 35.1237 131.687L34.9863 134.134C35.6601 134.227 36.9249 134.356 38.441 134.283C38.7261 134.264 38.9749 134.45 39.0578 134.72C39.1382 134.988 39.0241 135.278 38.7818 135.421C36.1279 136.986 33.5492 139.254 31.1208 142.166C25.2235 149.234 25.2429 160.984 25.4684 165.218C27.9331 161.914 32.1199 155.812 32.3402 153.161C32.6564 149.374 32.2313 145.886 32.2288 145.851C32.1925 145.553 32.3778 145.27 32.6668 145.187C32.7225 145.171 32.7808 145.163 32.8339 145.163C33.0685 145.163 33.2875 145.298 33.3911 145.517L35.3414 149.715L38.4254 145.9L37.1426 142.265C37.0467 141.994 37.1503 141.695 37.3914 141.542C37.6337 141.392 37.9499 141.427 38.1494 141.628L40.1722 143.654C41.3229 142.684 44.5884 139.659 45.9374 135.535C46.0372 135.222 46.3676 135.044 46.689 135.138C47.0609 135.246 47.4704 135.343 47.9706 135.444C48.0522 135.462 48.1287 135.496 48.1948 135.54C48.2712 135.523 48.3464 135.522 48.4241 135.536C49.4258 135.707 50.4897 135.794 51.586 135.794C53.3872 135.794 54.8748 135.558 55.6212 135.413L55.3154 132.571C55.2843 132.286 55.454 132.018 55.7249 131.926C55.9957 131.835 56.2924 131.941 56.444 132.185L58.463 135.466H63.3677L61.3268 131.309C61.1933 131.039 61.2775 130.713 61.5237 130.541C61.7686 130.367 62.1056 130.401 62.3155 130.616C62.3401 130.642 64.7866 133.165 67.929 135.299C70.1307 136.793 77.5105 137.372 81.6286 137.53C78.5069 134.721 69.5294 127.436 60.4106 127.436L60.145 127.438C57.688 127.477 55.3711 127.739 53.2576 128.218C52.9777 128.282 52.69 128.139 52.5695 127.878C52.4581 127.638 52.5138 127.359 52.7017 127.179L51.3942 125.103C51.2426 124.862 51.2775 124.546 51.4797 124.344C51.6831 124.143 51.998 124.108 52.2391 124.26L55.0692 126.053L58.8025 124.23L55.6782 121.803C55.4398 121.617 55.3724 121.288 55.5188 121.023C55.664 120.76 55.9814 120.64 56.2626 120.744C56.2911 120.756 59.1925 121.801 62.493 122.276C62.6368 122.298 62.7936 122.304 62.9621 122.304C65.6872 122.304 71.2878 120.004 73.9521 118.837C71.7621 118.22 67.4872 117.213 62.9103 117.213C59.1549 117.213 55.9322 117.884 53.3289 119.206C44.534 123.671 43.0736 129.035 43.0619 129.087C43.0529 129.119 43.027 129.195 43.0114 129.228L42.979 129.308C42.9129 129.465 42.7846 129.588 42.624 129.646C42.4646 129.705 42.2857 129.692 42.1328 129.613C40.0958 128.542 36.3819 127.25 30.5908 127.453C22.6642 127.73 15.1211 134.385 12.3584 137.108C15.9855 136.784 22.2223 135.958 24.0417 134.584Z" fill="#FFF8C9"/>
</g>
<defs>
<clipPath id="clip0_1_2">
<rect width="96" height="96" fill="white" transform="translate(77 94)"/>
</clipPath>
<clipPath id="clip1_1_2">
<rect width="74" height="74" fill="white" transform="matrix(-1 0 0 1 84 116)"/>
</clipPath>
</defs>
</svg>
