<svg width="301" height="131" viewBox="0 0 301 131" fill="none" xmlns="http://www.w3.org/2000/svg">
<g clip-path="url(#clip0_3_13)">
<path d="M121.37 96.77C118.217 96.77 115.467 96.165 113.12 94.955C110.81 93.745 109.032 92.0583 107.785 89.895C106.575 87.7317 105.97 85.22 105.97 82.36C105.97 80.5267 106.153 78.8033 106.52 77.19L110.37 76.695C110.04 78.125 109.875 79.7383 109.875 81.535C109.875 85.2017 110.92 88.0617 113.01 90.115C115.1 92.1317 117.887 93.14 121.37 93.14C125.183 93.14 128.172 92.095 130.335 90.005C132.535 87.915 133.635 85.11 133.635 81.59C133.635 78.3267 132.7 75.7233 130.83 73.78C128.96 71.8 126.503 70.81 123.46 70.81C121.077 70.81 119.207 71.3967 117.85 72.57C116.53 73.7067 115.87 75.2283 115.87 77.135C115.87 79.2983 116.823 81.5717 118.73 83.955L115.1 85.055C113.01 82.4883 111.965 79.83 111.965 77.08C111.965 75.2833 112.423 73.6333 113.34 72.13C114.257 70.6267 115.595 69.435 117.355 68.555C119.115 67.6383 121.187 67.18 123.57 67.18C126.503 67.18 129.033 67.8033 131.16 69.05C133.287 70.26 134.918 71.965 136.055 74.165C137.192 76.365 137.76 78.8767 137.76 81.7C137.76 84.5967 137.082 87.2 135.725 89.51C134.368 91.7833 132.443 93.5617 129.95 94.845C127.493 96.1283 124.633 96.77 121.37 96.77ZM153.136 96.77C150.13 96.77 147.783 96.055 146.096 94.625C144.446 93.1583 143.621 91.215 143.621 88.795C143.621 86.1917 144.556 84.1567 146.426 82.69C148.296 81.2233 150.918 80.49 154.291 80.49C158.508 80.49 162.193 81.5717 165.346 83.735C165.786 82.415 166.006 81.0033 166.006 79.5C166.006 76.7133 165.181 74.5683 163.531 73.065C161.918 71.5617 159.59 70.81 156.546 70.81C154.09 70.81 152.22 71.3233 150.936 72.35C149.653 73.34 149.011 74.77 149.011 76.64C149.011 77.1533 149.03 77.5383 149.066 77.795L145.271 78.235C145.198 77.8317 145.161 77.2267 145.161 76.42C145.161 73.5233 146.188 71.2683 148.241 69.655C150.331 68.005 153.173 67.18 156.766 67.18C160.946 67.18 164.21 68.2433 166.556 70.37C168.94 72.4967 170.131 75.485 170.131 79.335C170.131 81.7917 169.563 84.1933 168.426 86.54C170.59 88.9967 172.148 92.0033 173.101 95.56L169.636 96.77C168.94 94.0933 167.876 91.7833 166.446 89.84C164.796 91.9667 162.798 93.6533 160.451 94.9C158.141 96.1467 155.703 96.77 153.136 96.77ZM147.691 88.74C147.691 90.06 148.205 91.1233 149.231 91.93C150.258 92.7367 151.633 93.14 153.356 93.14C155.483 93.14 157.463 92.59 159.296 91.49C161.13 90.39 162.633 88.905 163.806 87.035C161.203 84.9817 157.995 83.955 154.181 83.955C152.091 83.955 150.478 84.3767 149.341 85.22C148.241 86.0267 147.691 87.2 147.691 88.74ZM189.829 96.77C185.979 96.77 182.991 96.1833 180.864 95.01C178.737 93.8367 177.674 92.1683 177.674 90.005C177.674 88.9417 177.912 87.9517 178.389 87.035C178.902 86.1183 179.691 85.22 180.754 84.34L183.174 86.705C182.221 87.585 181.744 88.5383 181.744 89.565C181.744 91.9483 184.384 93.14 189.664 93.14C192.597 93.14 194.816 92.7917 196.319 92.095C197.859 91.3617 198.629 90.335 198.629 89.015C198.629 87.8783 198.024 87.0167 196.814 86.43C195.641 85.8067 193.771 85.1283 191.204 84.395C188.894 83.7717 186.987 83.1667 185.484 82.58C183.981 81.9933 182.697 81.1317 181.634 79.995C180.607 78.8583 180.094 77.41 180.094 75.65C180.094 74 180.589 72.5333 181.579 71.25C182.569 69.9667 183.944 68.9767 185.704 68.28C187.464 67.5467 189.481 67.18 191.754 67.18C194.797 67.18 197.162 67.7667 198.849 68.94C200.572 70.1133 201.434 71.7267 201.434 73.78C201.434 74.6967 201.251 75.6133 200.884 76.53C200.517 77.41 200.004 78.18 199.344 78.84L196.319 76.915C197.016 76.1083 197.364 75.1733 197.364 74.11C197.364 73.0467 196.869 72.24 195.879 71.69C194.889 71.1033 193.459 70.81 191.589 70.81C189.316 70.81 187.519 71.25 186.199 72.13C184.879 73.01 184.219 74.165 184.219 75.595C184.219 76.6217 184.586 77.4833 185.319 78.18C186.052 78.84 186.969 79.3717 188.069 79.775C189.206 80.1783 190.709 80.6367 192.579 81.15C194.816 81.7733 196.594 82.36 197.914 82.91C199.271 83.4233 200.407 84.175 201.324 85.165C202.277 86.1183 202.754 87.3467 202.754 88.85C202.754 91.3433 201.617 93.2867 199.344 94.68C197.071 96.0733 193.899 96.77 189.829 96.77ZM215.54 96.715C213.157 96.715 211.415 95.8717 210.315 94.185C209.215 92.4983 208.665 89.8583 208.665 86.265C208.665 83.955 208.867 81.3517 209.27 78.455C209.674 75.5583 210.334 72.0567 211.25 67.95H215.375C213.615 75.7233 212.735 81.81 212.735 86.21C212.735 88.7033 212.974 90.5 213.45 91.6C213.927 92.6633 214.715 93.195 215.815 93.195C217.832 93.195 218.84 91.5267 218.84 88.19C218.84 86.7233 218.639 85.3667 218.235 84.12C217.832 82.8367 217.209 81.535 216.365 80.215L219.72 78.73C221.81 81.59 222.855 84.7067 222.855 88.08C222.855 90.7933 222.195 92.92 220.875 94.46C219.555 95.9633 217.777 96.715 215.54 96.715ZM214.33 62.12C213.524 62.12 212.827 61.8633 212.24 61.35C211.69 60.8 211.415 60.14 211.415 59.37C211.415 58.6367 211.69 58.0133 212.24 57.5C212.827 56.95 213.524 56.675 214.33 56.675C215.137 56.675 215.834 56.95 216.42 57.5C217.007 58.0133 217.3 58.6367 217.3 59.37C217.3 60.14 217.007 60.8 216.42 61.35C215.87 61.8633 215.174 62.12 214.33 62.12ZM239.727 96.77C235.877 96.77 232.888 96.1833 230.762 95.01C228.635 93.8367 227.572 92.1683 227.572 90.005C227.572 88.9417 227.81 87.9517 228.287 87.035C228.8 86.1183 229.588 85.22 230.652 84.34L233.072 86.705C232.118 87.585 231.642 88.5383 231.642 89.565C231.642 91.9483 234.282 93.14 239.562 93.14C242.495 93.14 244.713 92.7917 246.217 92.095C247.757 91.3617 248.527 90.335 248.527 89.015C248.527 87.8783 247.922 87.0167 246.712 86.43C245.538 85.8067 243.668 85.1283 241.102 84.395C238.792 83.7717 236.885 83.1667 235.382 82.58C233.878 81.9933 232.595 81.1317 231.532 79.995C230.505 78.8583 229.992 77.41 229.992 75.65C229.992 74 230.487 72.5333 231.477 71.25C232.467 69.9667 233.842 68.9767 235.602 68.28C237.362 67.5467 239.378 67.18 241.652 67.18C244.695 67.18 247.06 67.7667 248.747 68.94C250.47 70.1133 251.332 71.7267 251.332 73.78C251.332 74.6967 251.148 75.6133 250.782 76.53C250.415 77.41 249.902 78.18 249.242 78.84L246.217 76.915C246.913 76.1083 247.262 75.1733 247.262 74.11C247.262 73.0467 246.767 72.24 245.777 71.69C244.787 71.1033 243.357 70.81 241.487 70.81C239.213 70.81 237.417 71.25 236.097 72.13C234.777 73.01 234.117 74.165 234.117 75.595C234.117 76.6217 234.483 77.4833 235.217 78.18C235.95 78.84 236.867 79.3717 237.967 79.775C239.103 80.1783 240.607 80.6367 242.477 81.15C244.713 81.7733 246.492 82.36 247.812 82.91C249.168 83.4233 250.305 84.175 251.222 85.165C252.175 86.1183 252.652 87.3467 252.652 88.85C252.652 91.3433 251.515 93.2867 249.242 94.68C246.968 96.0733 243.797 96.77 239.727 96.77Z" fill="#FFF8C9"/>
<path d="M189.88 106V108.92H189.44C189.333 108.733 189.22 108.393 189.1 107.9C188.993 107.407 188.927 107.02 188.9 106.74H183.32V112.76H187.48C187.507 112.52 187.553 112.24 187.62 111.92C187.687 111.587 187.767 111.313 187.86 111.1H188.18V115.14H187.86C187.767 114.913 187.687 114.64 187.62 114.32C187.553 113.987 187.507 113.707 187.48 113.48H183.32V119.4C184.013 119.507 184.573 119.633 185 119.78V120H179.8V119.76C180.36 119.587 180.913 119.467 181.46 119.4V106.62C180.78 106.513 180.227 106.387 179.8 106.24V106H189.88ZM193.286 108.98C192.953 108.98 192.68 108.88 192.466 108.68C192.266 108.48 192.166 108.22 192.166 107.9C192.166 107.58 192.266 107.32 192.466 107.12C192.68 106.907 192.953 106.8 193.286 106.8C193.62 106.8 193.886 106.907 194.086 107.12C194.3 107.32 194.406 107.58 194.406 107.9C194.406 108.22 194.3 108.48 194.086 108.68C193.886 108.88 193.62 108.98 193.286 108.98ZM190.926 119.78C191.18 119.687 191.486 119.607 191.846 119.54C192.206 119.46 192.433 119.413 192.526 119.4V110.74C191.993 110.647 191.526 110.533 191.126 110.4V110.24L194.326 109.92V119.4C194.94 119.507 195.473 119.633 195.926 119.78V120H190.926V119.78ZM197.961 110.6C197.361 110.507 196.914 110.393 196.621 110.26V110.04H201.241V110.28C200.921 110.427 200.408 110.547 199.701 110.64L202.341 118.54L205.221 110.62C204.581 110.54 204.081 110.427 203.721 110.28V110.04H207.581V110.26C207.261 110.393 206.821 110.507 206.261 110.6L202.741 120H201.281L197.961 110.6ZM217.224 115.04H209.524C209.537 116.347 209.871 117.42 210.524 118.26C211.191 119.1 212.151 119.52 213.404 119.52C213.937 119.52 214.491 119.433 215.064 119.26C215.651 119.073 216.157 118.833 216.584 118.54L216.764 119.06C216.377 119.38 215.844 119.653 215.164 119.88C214.497 120.093 213.764 120.2 212.964 120.2C211.911 120.2 210.984 119.987 210.184 119.56C209.397 119.12 208.784 118.513 208.344 117.74C207.917 116.953 207.704 116.053 207.704 115.04C207.704 113.4 208.151 112.127 209.044 111.22C209.951 110.313 211.191 109.86 212.764 109.86C213.764 109.86 214.597 110.073 215.264 110.5C215.931 110.927 216.424 111.5 216.744 112.22C217.064 112.927 217.224 113.713 217.224 114.58V115.04ZM215.624 114.34C215.624 113.74 215.531 113.153 215.344 112.58C215.157 112.007 214.851 111.533 214.424 111.16C214.011 110.773 213.471 110.58 212.804 110.58C211.804 110.58 211.031 110.933 210.484 111.64C209.951 112.347 209.637 113.247 209.544 114.34H215.624ZM227.803 120.2C226.923 120.2 226.149 120.093 225.483 119.88C224.816 119.667 224.276 119.373 223.863 119L224.003 116.5H224.423C224.489 116.687 224.549 117.02 224.603 117.5C224.669 117.98 224.709 118.393 224.723 118.74C225.323 119.247 226.136 119.5 227.163 119.5C227.989 119.5 228.636 119.32 229.103 118.96C229.583 118.587 229.823 118.093 229.823 117.48C229.823 116.973 229.609 116.58 229.183 116.3C228.756 116.007 228.103 115.707 227.223 115.4C226.489 115.12 225.903 114.873 225.463 114.66C225.023 114.433 224.643 114.127 224.323 113.74C224.016 113.353 223.863 112.867 223.863 112.28C223.863 111.48 224.216 110.88 224.923 110.48C225.629 110.067 226.516 109.86 227.583 109.86C229.089 109.86 230.256 110.207 231.083 110.9L230.903 112.96H230.463C230.383 112.76 230.316 112.487 230.263 112.14C230.223 111.793 230.203 111.467 230.203 111.16C229.603 110.76 228.856 110.56 227.963 110.56C227.256 110.56 226.689 110.687 226.263 110.94C225.836 111.18 225.623 111.553 225.623 112.06C225.623 112.42 225.736 112.727 225.963 112.98C226.203 113.233 226.496 113.447 226.843 113.62C227.189 113.793 227.663 113.993 228.263 114.22C228.996 114.5 229.583 114.76 230.023 115C230.463 115.227 230.836 115.533 231.143 115.92C231.463 116.307 231.623 116.787 231.623 117.36C231.623 118.28 231.263 118.987 230.543 119.48C229.823 119.96 228.909 120.2 227.803 120.2ZM239.46 119.9C238.86 120.1 238.18 120.2 237.42 120.2C236.473 120.2 235.733 119.96 235.2 119.48C234.667 119 234.4 118.26 234.4 117.26V110.76H232.66V110.04H234.4V108.94C234.907 108.727 235.22 108.193 235.34 107.34H236.2V110.04H239.2V110.76H236.2V117.26C236.2 118.06 236.353 118.627 236.66 118.96C236.98 119.293 237.433 119.46 238.02 119.46C238.407 119.46 238.84 119.38 239.32 119.22L239.46 119.9ZM243.876 120.2C242.809 120.2 241.996 119.953 241.436 119.46C240.876 118.967 240.596 118.253 240.596 117.32C240.596 116.293 240.963 115.553 241.696 115.1C242.429 114.633 243.363 114.4 244.496 114.4H247.456V112.8C247.456 112.04 247.229 111.48 246.776 111.12C246.323 110.76 245.683 110.58 244.856 110.58C244.336 110.58 243.796 110.66 243.236 110.82C242.689 110.967 242.183 111.16 241.716 111.4L241.576 110.78C242.109 110.5 242.709 110.28 243.376 110.12C244.056 109.947 244.749 109.86 245.456 109.86C246.643 109.86 247.576 110.12 248.256 110.64C248.936 111.147 249.276 111.827 249.276 112.68V119.24C249.743 119.333 250.203 119.44 250.656 119.56V119.72L247.456 120.04V118.58C246.909 119.167 246.323 119.587 245.696 119.84C245.083 120.08 244.476 120.2 243.876 120.2ZM244.516 119.46C245.063 119.46 245.616 119.293 246.176 118.96C246.749 118.613 247.176 118.213 247.456 117.76V115.12H244.936C244.083 115.12 243.443 115.313 243.016 115.7C242.589 116.073 242.376 116.607 242.376 117.3C242.376 118.02 242.569 118.56 242.956 118.92C243.356 119.28 243.876 119.46 244.516 119.46ZM251.158 119.78C251.611 119.607 252.144 119.48 252.758 119.4V110.72C252.171 110.613 251.711 110.493 251.378 110.36V110.22L254.358 109.88L254.518 111.6H254.598C254.811 111.12 255.144 110.713 255.598 110.38C256.051 110.033 256.544 109.86 257.078 109.86C257.731 109.86 258.284 110.007 258.738 110.3L258.398 111.24C258.064 110.987 257.691 110.86 257.278 110.86C256.731 110.86 256.224 111.047 255.758 111.42C255.291 111.78 254.891 112.24 254.558 112.8V119.4C255.144 119.493 255.678 119.62 256.158 119.78V120H251.158V119.78ZM264.913 119.78C265.206 119.687 265.74 119.56 266.513 119.4V106.7C265.953 106.593 265.486 106.473 265.113 106.34V106.2L268.313 105.86V119.4C268.886 119.493 269.42 119.62 269.913 119.78V120H264.913V119.78ZM273.443 108.98C273.109 108.98 272.836 108.88 272.623 108.68C272.423 108.48 272.323 108.22 272.323 107.9C272.323 107.58 272.423 107.32 272.623 107.12C272.836 106.907 273.109 106.8 273.443 106.8C273.776 106.8 274.043 106.907 274.243 107.12C274.456 107.32 274.563 107.58 274.563 107.9C274.563 108.22 274.456 108.48 274.243 108.68C274.043 108.88 273.776 108.98 273.443 108.98ZM271.083 119.78C271.336 119.687 271.643 119.607 272.003 119.54C272.363 119.46 272.589 119.413 272.683 119.4V110.74C272.149 110.647 271.683 110.533 271.283 110.4V110.24L274.483 109.92V119.4C275.096 119.507 275.629 119.633 276.083 119.78V120H271.083V119.78ZM282.657 106.42C282.097 106.42 281.651 106.62 281.317 107.02C280.997 107.407 280.837 108.007 280.837 108.82V110.04H283.857V110.76H280.837V119.4C281.464 119.493 282.024 119.62 282.517 119.78V120H277.417V119.78C278.097 119.567 278.637 119.44 279.037 119.4V110.76H277.137V110.04H279.037V109.2C279.037 108.053 279.291 107.18 279.797 106.58C280.317 105.98 281.071 105.68 282.057 105.68C282.777 105.68 283.457 105.787 284.097 106L283.957 106.68C283.504 106.507 283.071 106.42 282.657 106.42ZM293.884 115.04H286.184C286.198 116.347 286.531 117.42 287.184 118.26C287.851 119.1 288.811 119.52 290.064 119.52C290.598 119.52 291.151 119.433 291.724 119.26C292.311 119.073 292.818 118.833 293.244 118.54L293.424 119.06C293.038 119.38 292.504 119.653 291.824 119.88C291.158 120.093 290.424 120.2 289.624 120.2C288.571 120.2 287.644 119.987 286.844 119.56C286.058 119.12 285.444 118.513 285.004 117.74C284.578 116.953 284.364 116.053 284.364 115.04C284.364 113.4 284.811 112.127 285.704 111.22C286.611 110.313 287.851 109.86 289.424 109.86C290.424 109.86 291.258 110.073 291.924 110.5C292.591 110.927 293.084 111.5 293.404 112.22C293.724 112.927 293.884 113.713 293.884 114.58V115.04ZM292.284 114.34C292.284 113.74 292.191 113.153 292.004 112.58C291.818 112.007 291.511 111.533 291.084 111.16C290.671 110.773 290.131 110.58 289.464 110.58C288.464 110.58 287.691 110.933 287.144 111.64C286.611 112.347 286.298 113.247 286.204 114.34H292.284ZM296.408 108.04C296.408 107.84 296.394 107.567 296.368 107.22C296.368 106.273 296.714 105.8 297.408 105.8C298.114 105.8 298.468 106.273 298.468 107.22C298.441 107.593 298.428 107.867 298.428 108.04L297.828 117.42H297.008L296.408 108.04ZM297.428 120.2C297.094 120.2 296.828 120.107 296.628 119.92C296.441 119.733 296.348 119.48 296.348 119.16C296.348 118.827 296.441 118.567 296.628 118.38C296.828 118.18 297.094 118.08 297.428 118.08C297.748 118.08 298.001 118.18 298.188 118.38C298.388 118.567 298.488 118.827 298.488 119.16C298.488 119.48 298.388 119.733 298.188 119.92C298.001 120.107 297.748 120.2 297.428 120.2Z" fill="#FFF8C9"/>
<g clip-path="url(#clip1_3_13)">
<path d="M162.58 27.8287C162.069 27.2537 149.916 13.7597 136.351 13.2873C129.187 13.0419 124.34 14.4859 121.405 15.861C120.605 13.7916 117.543 7.85066 107.512 2.75698C103.908 0.927958 99.487 0 94.3647 0C85.5777 0 77.8548 2.69142 77.5286 2.80405C77.226 2.91164 77.0159 3.19238 77.0008 3.51347C76.984 3.83455 77.1655 4.13379 77.4547 4.26995C77.9338 4.49522 89.2323 9.77719 94.2958 9.77719C94.5967 9.77719 94.8757 9.75869 95.1296 9.72339C96.693 9.49813 98.1723 9.18544 99.4432 8.86772L97.7117 10.2143C97.4949 10.3824 97.3822 10.6514 97.4091 10.922C97.4377 11.1943 97.6041 11.4331 97.8513 11.5541L101.751 13.4588C100.524 13.3478 99.2634 13.2822 97.9757 13.2604L97.6041 13.257C82.3634 13.257 68.0507 27.6236 67.4488 28.2355C67.2219 28.4641 67.1563 28.8071 67.2824 29.1046C67.4102 29.3988 67.6708 29.6106 68.0238 29.5837C68.6912 29.5736 84.3925 29.3097 88.7381 26.3577C90.394 25.2331 91.8918 24.0429 93.1089 23.0056L91.7809 25.7071C91.6598 25.9526 91.675 26.2417 91.8195 26.4754C91.9658 26.7091 92.2196 26.8503 92.4936 26.8503H100.58C100.855 26.8503 101.111 26.7074 101.254 26.472L102.266 24.8296L102.167 25.734C102.125 26.1257 102.377 26.4905 102.758 26.588C102.869 26.6166 105.487 27.2756 109.056 27.2756C109.081 27.2756 109.106 27.2756 109.133 27.2739C103.648 30.3268 98.8313 34.7312 94.6152 39.8165C94.6084 39.8198 94.5866 39.8299 94.5832 39.8316L94.59 39.8451C88.2775 47.4671 83.3216 56.6374 79.588 65.2328C79.5678 65.2479 79.5426 65.2664 79.5392 65.2681L79.5611 65.2967C73.3511 79.6061 70.4933 92.2663 70.2546 93.3439C70.1789 93.6885 70.3437 94.0466 70.6564 94.2147C72.8754 95.3965 75.3382 96 77.9775 96C82.4357 96 85.8248 94.2937 85.9694 94.2214C86.2282 94.0886 86.3947 93.8247 86.4014 93.5322C87.131 58.1739 112.162 30.2192 115.256 26.9007C117.76 33.2922 123.205 37.4092 123.447 37.589C123.763 37.8244 124.206 37.7925 124.485 37.5117L125.125 36.8679L124.485 38.6868C124.391 38.9457 124.443 39.2348 124.614 39.45L129.693 45.7322C129.866 45.9457 130.131 46.0533 130.407 46.0214C130.678 45.9861 130.915 45.8163 131.029 45.5658L132.3 42.834C132.256 44.4327 132.27 46.3458 132.438 48.3429C132.872 53.5745 142.536 65.9573 142.946 66.4802C143.145 66.7306 143.473 66.8416 143.787 66.7542C144.096 66.6651 144.32 66.3995 144.36 66.0817C144.459 65.216 146.67 44.7353 136.822 32.9291C134.242 29.8376 131.53 27.2806 128.729 25.2953C130.421 25.2045 131.52 24.9843 131.579 24.9725C131.964 24.8935 132.236 24.5421 132.213 24.1505L132.189 23.7739L132.801 24.8901C132.932 25.1322 133.181 25.2886 133.457 25.302L140.556 25.6618C140.571 25.6618 140.584 25.6618 140.598 25.6618C140.605 25.6634 140.608 25.6634 140.611 25.6618C141.052 25.6618 141.406 25.307 141.406 24.8683C141.406 24.7019 141.356 24.5489 141.269 24.4211L140.462 22.5366C141.422 23.4293 142.57 24.4211 143.827 25.3743C147.537 28.1767 161.351 29.1097 161.934 29.1466C162.265 29.1534 162.558 28.992 162.699 28.7028C162.84 28.4154 162.793 28.0707 162.58 27.8287ZM88.1127 52.1321C90.3604 48.306 92.8618 44.6042 95.6205 41.2101C96.113 41.0185 97.2646 40.6738 98.3354 41.1378C99.3054 41.5581 100.028 42.5819 100.507 44.1385C98.5926 47.2788 96.6594 50.7553 94.8337 54.5159C92.9459 52.3994 90.2376 51.9606 88.1127 52.1321ZM87.0436 53.9964C88.3699 53.7006 92.0112 53.2332 94.0285 56.2205C92.6634 59.1506 91.3757 62.2438 90.2158 65.4799C87.0251 63.1247 83.9924 63.3903 81.9801 64.0594C83.4881 60.7241 85.1708 57.3317 87.0436 53.9964ZM75.8576 79.7002C77.2681 79.0513 82.4155 77.0222 86.3224 79.6178C85.9206 81.7041 85.5911 83.8256 85.3423 85.9824C80.5546 84.2879 76.1552 85.1637 73.9076 85.8614C74.4472 84.0391 75.0978 81.9613 75.8576 79.7002ZM76.5805 77.5921C77.7959 74.1173 79.2635 70.2845 80.9765 66.3255C82.1483 65.611 85.7239 63.9552 89.6257 67.1526C88.4658 70.5753 87.4622 74.1493 86.6737 77.8493C83.0712 75.8236 78.934 76.7516 76.5805 77.5921ZM77.9825 94.408C75.8207 94.408 73.7933 93.9608 71.9491 93.085C72.1609 92.1991 72.6215 90.3532 73.3326 87.8434C74.5514 87.3592 79.6754 85.6109 85.1608 87.7156C84.9977 89.4572 84.88 91.2156 84.8313 92.9976C83.8361 93.4212 81.185 94.408 77.9825 94.408ZM101.622 42.3432C100.988 41.0067 100.116 40.0771 99.0028 39.5963C98.4144 39.3424 97.8294 39.2466 97.2814 39.2348C101.805 34.0806 106.983 29.8006 112.863 27.1882C110.617 29.7401 106.253 35.022 101.622 42.3432ZM144.784 24.1084C141.331 21.4994 138.693 18.4919 138.666 18.4633C138.411 18.1692 137.977 18.1036 137.646 18.3121C137.318 18.5205 137.187 18.9391 137.34 19.2972L139.366 24.0126L133.983 23.7403L131.895 19.9276C131.717 19.6031 131.338 19.4434 130.98 19.546C130.624 19.6485 130.385 19.9847 130.407 20.3512L130.585 23.5251C129.711 23.6461 128.07 23.8126 126.104 23.7184C125.734 23.6932 125.411 23.9353 125.303 24.2849C125.199 24.6329 125.347 25.0095 125.661 25.1944C129.104 27.2252 132.45 30.1671 135.6 33.9445C143.251 43.1148 143.225 58.3572 142.933 63.8509C139.735 59.5642 134.304 51.648 134.018 48.2085C133.608 43.2963 134.159 38.7708 134.163 38.7255C134.21 38.3388 133.969 37.9723 133.594 37.8647C133.522 37.8429 133.447 37.8328 133.378 37.8328C133.073 37.8328 132.789 38.0076 132.655 38.2917L130.125 43.7385L126.124 38.7893L127.788 34.0739C127.912 33.7225 127.778 33.3342 127.465 33.1359C127.151 32.9408 126.741 32.9862 126.482 33.2468L123.858 35.876C122.365 34.6169 118.129 30.6932 116.378 25.3423C116.249 24.9372 115.82 24.7052 115.403 24.8279C114.921 24.9675 114.39 25.0935 113.741 25.2247C113.635 25.2482 113.536 25.2919 113.45 25.3491C113.351 25.3272 113.253 25.3255 113.152 25.344C111.853 25.5659 110.473 25.6786 109.051 25.6786C106.714 25.6786 104.784 25.3726 103.816 25.1843L104.212 21.4977C104.253 21.1279 104.033 20.7799 103.681 20.6605C103.33 20.5428 102.945 20.6807 102.748 20.9967L100.129 25.2532H93.7662L96.4139 19.8603C96.5871 19.5107 96.4778 19.087 96.1584 18.8634C95.8407 18.6382 95.4036 18.6819 95.1313 18.961C95.0993 18.9946 91.9254 22.2676 87.8488 25.0364C84.9926 26.9747 75.4189 27.7261 70.0764 27.9312C74.1261 24.2866 85.7727 14.8356 97.6025 14.8356L97.9471 14.8389C101.134 14.8894 104.14 15.2289 106.882 15.8509C107.245 15.9333 107.618 15.7484 107.775 15.4088C107.919 15.0978 107.847 14.7364 107.603 14.5027L109.299 11.8096C109.496 11.4969 109.451 11.0868 109.188 10.8245C108.925 10.5639 108.516 10.5185 108.203 10.7152L104.532 13.0419L99.6887 10.6766L103.742 7.5279C104.051 7.2875 104.139 6.8605 103.949 6.51588C103.76 6.17462 103.348 6.01996 102.984 6.15445C102.947 6.16958 99.1827 7.52621 94.901 8.14149C94.7144 8.17007 94.5109 8.17847 94.2924 8.17847C90.7571 8.17847 83.4914 5.19455 80.0351 3.67989C82.8762 2.8797 88.4221 1.57349 94.3596 1.57349C99.2314 1.57349 103.412 2.4443 106.79 4.159C118.199 9.95202 120.094 16.91 120.109 16.9773C120.121 17.0193 120.154 17.1185 120.174 17.1605L120.216 17.2647C120.302 17.4681 120.469 17.6278 120.677 17.7035C120.884 17.7791 121.116 17.7623 121.314 17.6598C123.957 16.2712 128.775 14.5952 136.288 14.8574C146.571 15.2172 156.356 23.8512 159.94 27.3832C155.235 26.9629 147.144 25.8921 144.784 24.1084Z" fill="#FFF8C9"/>
</g>
<g clip-path="url(#clip2_3_13)">
<path d="M0.32395 43.4513C0.717884 43.0081 10.0855 32.6064 20.5416 32.2423C26.0644 32.0531 29.8003 33.1662 32.0629 34.2262C32.6797 32.631 35.0394 28.0516 42.7716 24.1252C45.5499 22.7153 48.958 22 52.9064 22C59.6797 22 65.6328 24.0746 65.8842 24.1615C66.1174 24.2444 66.2794 24.4608 66.2911 24.7083C66.304 24.9558 66.1641 25.1865 65.9412 25.2914C65.5719 25.4651 56.8626 29.5366 52.9595 29.5366C52.7276 29.5366 52.5124 29.5223 52.3168 29.4951C51.1117 29.3215 49.9713 29.0804 48.9917 28.8355L50.3264 29.8735C50.4935 30.0031 50.5804 30.2104 50.5596 30.419C50.5376 30.629 50.4093 30.813 50.2188 30.9063L47.2125 32.3745C48.1584 32.2889 49.1303 32.2384 50.1229 32.2216L50.4093 32.219C62.1574 32.219 73.1901 43.2932 73.654 43.7649C73.8289 43.9411 73.8795 44.2054 73.7823 44.4348C73.6838 44.6616 73.483 44.8249 73.2108 44.8041C72.6964 44.7963 60.5933 44.5929 57.2435 42.3174C55.9671 41.4505 54.8126 40.533 53.8744 39.7335L54.8981 41.8159C54.9914 42.0051 54.9797 42.228 54.8683 42.4081C54.7555 42.5882 54.5599 42.6971 54.3486 42.6971H48.1157C47.9032 42.6971 47.7062 42.5869 47.596 42.4055L46.816 41.1395L46.8924 41.8367C46.9248 42.1386 46.7304 42.4198 46.4363 42.4949C46.3507 42.517 44.3331 43.0249 41.5821 43.0249C41.5626 43.0249 41.5432 43.0249 41.5225 43.0236C45.7508 45.3769 49.4633 48.772 52.7133 52.6919C52.7185 52.6945 52.7353 52.7022 52.7379 52.7035L52.7327 52.7139C57.5986 58.5892 61.4187 65.658 64.2968 72.2836C64.3123 72.2953 64.3318 72.3095 64.3344 72.3108L64.3175 72.3329C69.1043 83.363 71.3073 93.122 71.4913 93.9526C71.5496 94.2182 71.4226 94.4942 71.1816 94.6238C69.4711 95.5348 67.5727 96 65.5382 96C62.1016 96 59.4892 94.6847 59.3778 94.629C59.1782 94.5266 59.0499 94.3232 59.0448 94.0977C58.4824 66.8424 39.1874 45.2939 36.803 42.736C34.8722 47.6627 30.675 50.8362 30.4884 50.9749C30.2448 51.1563 29.904 51.1317 29.6889 50.9153L29.1952 50.419L29.6889 51.8211C29.7615 52.0206 29.7213 52.2435 29.5891 52.4094L25.6744 57.2519C25.5409 57.4165 25.3362 57.4994 25.1237 57.4748C24.915 57.4476 24.7323 57.3167 24.6442 57.1236L23.6645 55.0179C23.6982 56.2502 23.6879 57.7249 23.5583 59.2644C23.224 63.297 15.7742 72.8421 15.458 73.2451C15.3051 73.4382 15.0524 73.5237 14.8101 73.4563C14.5717 73.3877 14.3993 73.1829 14.3682 72.938C14.2918 72.2707 12.5877 56.4835 20.1787 47.3828C22.1679 44.9998 24.258 43.0288 26.4169 41.4984C25.1133 41.4285 24.2658 41.2587 24.2205 41.2496C23.9237 41.1887 23.7138 40.9179 23.7319 40.616L23.7501 40.3257L23.2784 41.1861C23.1773 41.3727 22.9855 41.4933 22.773 41.5036L17.3007 41.7809C17.289 41.7809 17.2787 41.7809 17.2683 41.7809C17.2631 41.7822 17.2605 41.7822 17.2579 41.7809C16.9184 41.7809 16.645 41.5075 16.645 41.1693C16.645 41.041 16.6839 40.9231 16.7513 40.8246L17.3733 39.372C16.6333 40.0601 15.7483 40.8246 14.779 41.5593C11.9191 43.7195 1.2712 44.4387 0.82155 44.4672C0.56627 44.4724 0.340797 44.348 0.231947 44.1251C0.123097 43.9035 0.159379 43.6379 0.32395 43.4513ZM57.7256 62.1852C55.9931 59.2358 54.0649 56.3824 51.9384 53.7661C51.5587 53.6184 50.6711 53.3527 49.8456 53.7104C49.0979 54.0344 48.5407 54.8235 48.1714 56.0235C49.6474 58.4441 51.1376 61.1239 52.5448 64.0227C54.0001 62.3912 56.0877 62.053 57.7256 62.1852ZM58.5497 63.6222C57.5273 63.3942 54.7206 63.0339 53.1656 65.3366C54.2178 67.5953 55.2104 69.9796 56.1045 72.4741C58.564 70.6586 60.9017 70.8634 62.4528 71.3791C61.2904 68.8082 59.9933 66.1932 58.5497 63.6222ZM67.1722 83.4356C66.085 82.9354 62.1172 81.3713 59.1057 83.3721C59.4154 84.9802 59.6693 86.6156 59.8611 88.2781C63.5517 86.9719 66.9429 87.647 68.6754 88.1848C68.2594 86.7801 67.758 85.1785 67.1722 83.4356ZM66.615 81.8106C65.6781 79.1321 64.5469 76.1776 63.2264 73.1259C62.3232 72.5752 59.567 71.2988 56.5593 73.7635C57.4535 76.4018 58.2271 79.1567 58.8348 82.0089C61.6118 80.4474 64.8009 81.1627 66.615 81.8106ZM65.5343 94.7728C67.2007 94.7728 68.7635 94.4282 70.1851 93.753C70.0218 93.0701 69.6667 91.6473 69.1186 89.7126C68.1791 89.3394 64.2294 87.9917 60.0011 89.6141C60.1268 90.9566 60.2175 92.3121 60.2551 93.6856C61.0222 94.0122 63.0657 94.7728 65.5343 94.7728ZM47.3123 54.6395C47.8008 53.6093 48.4733 52.8927 49.3312 52.5221C49.7847 52.3264 50.2357 52.2526 50.6581 52.2435C47.171 48.2705 43.1798 44.9713 38.647 42.9576C40.3782 44.9246 43.7422 48.9961 47.3123 54.6395ZM14.0417 40.5836C16.7033 38.5724 18.7365 36.2542 18.7572 36.2322C18.9542 36.0054 19.2885 35.9549 19.5438 36.1155C19.7965 36.2762 19.8976 36.5989 19.7796 36.8749L18.2181 40.5097L22.3674 40.2998L23.9768 37.3608C24.1142 37.1107 24.4058 36.9876 24.6818 37.0667C24.9565 37.1457 25.1405 37.4049 25.1237 37.6874L24.9863 40.1339C25.6601 40.2272 26.9249 40.3555 28.441 40.2829C28.7261 40.2635 28.9749 40.4501 29.0578 40.7196C29.1382 40.9879 29.0241 41.2782 28.7818 41.4207C26.1279 42.9861 23.5492 45.2538 21.1208 48.1655C15.2235 55.2343 15.2429 66.9836 15.4684 71.2184C17.9331 67.9141 22.1199 61.812 22.3402 59.1607C22.6564 55.3743 22.2314 51.8859 22.2288 51.8509C22.1925 51.5528 22.3778 51.2703 22.6668 51.1874C22.7225 51.1706 22.7808 51.1628 22.8339 51.1628C23.0685 51.1628 23.2875 51.2976 23.3911 51.5165L25.3414 55.7151L28.4255 51.9001L27.1426 48.2653C27.0467 47.9945 27.1503 47.6951 27.3914 47.5422C27.6337 47.3919 27.9499 47.4269 28.1494 47.6277L30.1722 49.6544C31.3229 48.6839 34.5884 45.6594 35.9374 41.5347C36.0372 41.2224 36.3676 41.0436 36.689 41.1382C37.0609 41.2458 37.4704 41.3429 37.9706 41.444C38.0522 41.4622 38.1287 41.4959 38.1948 41.5399C38.2712 41.5231 38.3464 41.5218 38.4241 41.536C39.4258 41.7071 40.4897 41.7939 41.586 41.7939C43.3872 41.7939 44.8748 41.5581 45.6212 41.4129L45.3154 38.5711C45.2843 38.2861 45.454 38.0178 45.7249 37.9258C45.9957 37.8351 46.2924 37.9414 46.4441 38.185L48.463 41.466H53.3677L51.3268 37.309C51.1933 37.0395 51.2775 36.7129 51.5237 36.5406C51.7686 36.3669 52.1056 36.4006 52.3155 36.6157C52.3401 36.6416 54.7866 39.1646 57.929 41.2989C60.1307 42.793 67.5105 43.3722 71.6286 43.5303C68.507 40.7209 59.5294 33.4358 50.4106 33.4358L50.145 33.4383C47.6881 33.4772 45.3711 33.739 43.2576 34.2184C42.9777 34.2819 42.69 34.1394 42.5695 33.8776C42.4581 33.6379 42.5138 33.3593 42.7017 33.1792L41.3942 31.1032C41.2426 30.8622 41.2776 30.546 41.4797 30.3439C41.6831 30.143 41.998 30.108 42.2391 30.2597L45.0692 32.0531L48.8025 30.2299L45.6782 27.8028C45.4398 27.6174 45.3724 27.2883 45.5188 27.0227C45.664 26.7596 45.9814 26.6404 46.2626 26.7441C46.2911 26.7557 49.1925 27.8015 52.493 28.2757C52.6368 28.2978 52.7936 28.3042 52.9621 28.3042C55.6872 28.3042 61.2878 26.0041 63.9521 24.8366C61.7621 24.2198 57.4872 23.2129 52.9103 23.2129C49.1549 23.2129 45.9322 23.8841 43.3289 25.2059C34.534 29.6713 33.0736 35.0348 33.062 35.0866C33.0529 35.119 33.027 35.1955 33.0114 35.2279L32.979 35.3082C32.9129 35.465 32.7846 35.5881 32.624 35.6464C32.4646 35.7048 32.2857 35.6918 32.1328 35.6128C30.0958 34.5424 26.3819 33.2504 20.5908 33.4526C12.6642 33.7299 5.12113 40.3853 2.35841 43.1079C5.98546 42.7839 12.2223 41.9585 14.0417 40.5836Z" fill="#FFF8C9"/>
</g>
</g>
<defs>
<clipPath id="clip0_3_13">
<rect width="301" height="131" fill="white"/>
</clipPath>
<clipPath id="clip1_3_13">
<rect width="96" height="96" fill="white" transform="translate(67)"/>
</clipPath>
<clipPath id="clip2_3_13">
<rect width="74" height="74" fill="white" transform="matrix(-1 0 0 1 74 22)"/>
</clipPath>
</defs>
</svg>
